<svg width="513" height="641" viewBox="0 0 513 641" fill="none" xmlns="http://www.w3.org/2000/svg">
<path d="M225.4 2.20001C168.467 9.53334 116.067 35.1333 75.5334 75.5333C27.8 123.133 0.333374 189.267 0.333374 256.467C0.333374 338.467 45.1334 432.333 129.133 526.467C169.133 571.267 246.333 640.333 256.333 640.333C263.933 640.333 314.333 597.4 354.6 556.733C438.467 472.067 491.133 385.8 507 307.133C512.6 278.867 513.667 254.733 510.333 227C497.8 121.267 422.067 34.6 319.667 8.46667C291.267 1.13334 253.267 -1.26666 225.4 2.20001ZM292.067 67.6667C330.2 75.1333 363.933 93.1333 391.667 121C419.667 148.867 437.4 182.2 445.267 221.267C448.467 237.4 448.467 273.667 445.267 290.333C429.8 369.933 369.4 430.333 290.333 445.133C272.467 448.467 237.933 448.6 221.267 445.267C182.467 437.533 148.733 419.533 121 391.667C93 363.8 75.2667 330.467 67.4 291.4C64.2 275.133 64.2 237.533 67.4 221.267C80.3334 156.467 123.533 103.533 183.533 78.8667C197.267 73.2667 217.267 67.8 231.667 65.8C244.733 63.9333 278.867 65 292.067 67.6667Z" fill="#50C9FF"/>
<path d="M142.333 142.333L139 145.533V192.467C139 225.4 139.533 241 140.6 244.867C143.667 255.267 158.6 267 168.733 267C170.733 267 171 271.933 171.267 313.533C171.667 358.2 171.8 360.333 174.467 363.8C179.667 370.867 183.933 373 192.333 373C200.733 373 205 370.867 210.2 363.8C212.867 360.333 213 358.2 213.4 313.533C213.8 269.933 213.933 267 216.2 267C217.4 267 221.267 266.067 224.733 264.867C232.333 262.333 241.8 252.467 244.067 244.6C245.133 241 245.667 224.867 245.667 192.467V145.533L242.333 142.333C240.333 140.2 237.533 139 235 139C232.467 139 229.667 140.2 227.667 142.333C224.333 145.533 224.333 145.533 224.333 174.333V203H213.667H203V174.333C203 145.533 203 145.533 199.667 142.333C197.667 140.2 194.867 139 192.333 139C189.8 139 187 140.2 185 142.333C181.667 145.533 181.667 145.533 181.667 174.333V203H171H160.333V174.333C160.333 145.533 160.333 145.533 157 142.333C155 140.2 152.2 139 149.667 139C147.133 139 144.333 140.2 142.333 142.333Z" fill="#50C9FF"/>
<path d="M309.267 140.333C290.333 145.133 273.667 164.2 268.867 186.867C263 214.6 271.533 240.333 292.067 256.6L298.333 261.533L299 310.867C299.667 358.067 299.8 360.333 302.467 363.8C307.667 370.867 311.933 373 320.333 373C328.733 373 333 370.867 338.2 363.8C340.867 360.333 341 358.2 341.4 311L341.8 261.8L347.8 257.533C363.133 246.467 373.667 224.733 373.667 204.333C373.533 177.667 359.667 152.6 339.8 143.533C331.533 139.8 317.4 138.333 309.267 140.333Z" fill="#50C9FF"/>
</svg>
